<svg xmlns="http://www.w3.org/2000/svg" xml:space="preserve" viewBox="0 0 400 400"><path d="M154.095 399.848-1.838 245.394v-90.939L154.095 0h91.809l155.933 154.455v90.939L245.905 399.848h-91.81z"/><linearGradient id="a" x1="96.803" x2="307.106" y1="306.441" y2="89.764" gradientTransform="matrix(1 0 0 -1 0 400)" gradientUnits="userSpaceOnUse"><stop offset="0" style="stop-color:#91673c"/><stop offset=".099" style="stop-color:#9f764a"/><stop offset=".25" style="stop-color:#bb9468"/><stop offset=".5" style="stop-color:#f2d09b"/><stop offset=".75" style="stop-color:#a57645"/><stop offset="1" style="stop-color:#dbac78"/></linearGradient><path fill="url(#a)" d="M302.236 88.7 112.191 276.944l-.273-159.872-13.877 13.746v160.141l-63.029-61.754v-58.572l135.424-134.14h22.423v140.506l14.151-14.017V36.493h22.423l52.161 51.665 10.049-9.954-56.263-55.728h-70.823L20.86 164.81v70.151l76.907 76.177 95.159-94.256v146.464h-22.491l-52.16-51.665-10.049 9.953 56.33 55.798h70.823l143.765-142.47V164.81L302.236 88.7zm62.756 140.438-62.688 62.094-81.212-80.376.273 20.178 70.89 70.219-62.687 62.093h-22.423V202.865l95.158-94.257 62.688 62.093v58.437z"/></svg>